# xmcd
#
# Track frame offsets:
#	150
#	13762
#	26898
#	44986
#	63469
#	76087
#	94734
#	112191
#	127786
#	145379
#	161363
#
# Disc length: 2461 seconds
#
# Revision: 1
# Processed by: cddbd v1.5.2PL0 Copyright (c) Steve Scherf et al.
# Submitted via: audiograbber 1.80
#
DISCID=95099b0b
DTITLE=DK ROCKS - 1
DYEAR=1900
DGENRE=
TTITLE0=PULL THE PLUG
TTITLE1=VIDEO VIDEO
TTITLE2=KEEP MY LOVE LIGHT SHINING
TTITLE3=BILLY BOY
TTITLE4=ALL MY LOVE
TTITLE5=WHEN I WHISPER YOUR NAME
TTITLE6=LOVE IS GONNA CALL
TTITLE7=RAIN ON MY WINDOW
TTITLE8=SUI SUI
TTITLE9=I'M IN LOVE
TTITLE10=IT'S NEVER TOO LATE TO SAY I NEED YOU
EXTD=
EXTT0=
EXTT1=
EXTT2=
EXTT3=
EXTT4=
EXTT5=
EXTT6=
EXTT7=
EXTT8=
EXTT9=
EXTT10=
PLAYORDER=
